<svg xmlns="http://www.w3.org/2000/svg" xmlns:xlink="http://www.w3.org/1999/xlink" version="1.1" x="0px" y="0px" viewBox="0 0 100 125" style="enable-background:new 0 0 100 100;" xml:space="preserve"><path d="M88.8,12.4c-1.3-0.9-3.2-0.5-4.1,0.8l-15.4,23c-0.9-1-2-1.8-3.2-2.3c-0.2-0.7-0.5-1.4-0.8-2L75.5,8.2c0-0.1,0.1-0.2,0.1-0.3  c0.5-1.6-0.4-3.2-1.9-3.7c-1.6-0.5-3.2,0.4-3.7,1.9l-7,22.8c-1.7-1.4-3.8-2.2-6.1-2.2c-1.5,0-2.9,0.3-4.2,1  c-2.1-1.7-4.8-2.7-7.6-2.7c-2.9,0-5.7,1.1-7.9,2.9c-0.8-0.2-1.6-0.3-2.4-0.3c-4.7,0-8.7,3.4-9.5,8c-4.1,1-7.2,4.6-7.4,8.9  c-3.8,1.3-6.3,4.9-6.3,9c0,0.1,0,0.2,0,0.3H9.9v2.1C9.9,69,16.2,80.9,27,88l-3.2,7.9h45.1L65.7,88C76.5,80.9,82.9,69,82.9,55.9v-2.1  h-3.3c-0.3-1.1-0.9-2.2-1.6-3.1c0.2-0.7,0.3-1.4,0.3-2.2c0-4.3-2.9-8-6.9-9.2c-0.1-0.2-0.1-0.4-0.2-0.5l18.4-22.1  c0.1-0.1,0.1-0.2,0.2-0.2C90.6,15.1,90.2,13.3,88.8,12.4z M67.6,41.5l0.3,1.4l1.4,0.2c2.7,0.4,4.7,2.7,4.7,5.4c0,0.7-0.1,1.3-0.4,2  l-0.5,1.3l1,0.9c0.4,0.3,0.6,0.7,0.9,1.1H15.7c0-0.1,0-0.2,0-0.3c0-2.7,2-5,4.7-5.4l2-0.3l-0.3-2c0-0.3-0.1-0.6-0.1-0.8  c0-3,2.3-5.4,5.3-5.5l2-0.1l0-2c0-0.1,0-0.1,0-0.2c0-3,2.5-5.5,5.5-5.5c0.7,0,1.4,0.1,2.1,0.4l1.3,0.6l1-1c1.5-1.6,3.6-2.6,5.9-2.6  c2.2,0,4.3,0.9,5.9,2.6l1.3,1.3l1.5-1.1c1-0.7,2.1-1.1,3.3-1.1c2.8,0,5.1,2.1,5.5,4.8l0.2,1.4l1.3,0.4C65.7,38,67.2,39.6,67.6,41.5z  "/><text x="0" y="115" fill="#000000" font-size="5px" font-weight="bold" font-family="'Helvetica Neue', Helvetica, Arial-Unicode, Arial, Sans-serif">Created by mikicon</text><text x="0" y="120" fill="#000000" font-size="5px" font-weight="bold" font-family="'Helvetica Neue', Helvetica, Arial-Unicode, Arial, Sans-serif">from the Noun Project</text></svg>